<svg width="44" height="44" viewBox="0 0 44 44" fill="none" xmlns="http://www.w3.org/2000/svg">
<path d="M41.3171 32.1552C42.7988 32.1552 44 33.3516 44 34.8276C44 36.3035 42.7988 37.5 41.3171 37.5H2.68295C1.20121 37.5 0 36.3035 0 34.8276C1.16832e-05 33.3516 1.20121 32.1552 2.68295 32.1552H41.3171ZM41.3171 19.3276C42.7988 19.3276 44 20.524 44 22C44 23.4759 42.7988 24.6724 41.3171 24.6724H2.68295C1.20121 24.6724 0 23.4759 0 22C1.11522e-05 20.524 1.20121 19.3276 2.68295 19.3276H41.3171ZM41.3171 6.5C42.7988 6.5 44 7.6965 44 9.17244C44 10.6484 42.7988 11.8449 41.3171 11.8449H2.68295C1.20121 11.8449 0 10.6484 0 9.17244C0 7.6965 1.20121 6.5 2.68295 6.5H41.3171Z" fill="#9CA3AF"/>
</svg>
